<svg id="레이어_1" data-name="레이어 1" xmlns="http://www.w3.org/2000/svg" viewBox="0 0 30 20"><defs><style>.cls-1{fill:#fff;}.cls-2{fill:#ce1127;}.cls-3{fill:#003e87;}</style></defs><title>컬러대지 2 사본</title><rect class="cls-1" width="30" height="20"/><circle class="cls-2" cx="15" cy="10" r="5"/><path class="cls-3" d="M18.46,9.28A2.5,2.5,0,0,0,15,10a2.5,2.5,0,0,1-4.2-2.71A4.93,4.93,0,0,0,10,10a5,5,0,0,0,9.18,2.74l0,0A2.5,2.5,0,0,0,18.46,9.28Z"/><rect x="23.27" y="1.7" width="0.8" height="5" transform="translate(45.64 -5.56) rotate(146)"/><rect x="21.2" y="3.09" width="0.8" height="5" transform="translate(42.63 -1.85) rotate(146)"/><rect x="23" y="4.91" width="0.8" height="2.25" transform="translate(0.63 14.12) rotate(-34)"/><rect x="21.47" y="2.63" width="0.8" height="2.25" transform="translate(1.64 12.87) rotate(-34)"/><rect x="6.97" y="12.6" width="0.8" height="5" transform="translate(21.92 23.51) rotate(146)"/><rect x="7.25" y="12.14" width="0.8" height="2.3" transform="translate(-6.12 6.55) rotate(-34)"/><rect x="8.79" y="14.47" width="0.8" height="2.2" transform="translate(-7.13 7.8) rotate(-34)"/><rect x="5.17" y="13.53" width="0.8" height="2.3" transform="translate(-7.26 5.63) rotate(-34)"/><rect x="6.71" y="15.86" width="0.8" height="2.2" transform="translate(-8.27 6.88) rotate(-34)"/><rect x="5.93" y="1.7" width="0.8" height="5" transform="translate(3.43 -2.82) rotate(34)"/><rect x="6.97" y="2.4" width="0.8" height="5" transform="translate(4 -3.28) rotate(34)"/><rect x="8" y="3.09" width="0.8" height="5" transform="translate(4.56 -3.74) rotate(34)"/><rect x="19.71" y="15.17" width="2.2" height="0.8" transform="translate(-3.73 24.12) rotate(-56)"/><rect x="21.2" y="12.89" width="2.3" height="0.8" transform="translate(-1.16 24.39) rotate(-56)"/><rect x="20.75" y="15.87" width="2.2" height="0.8" transform="translate(-3.85 25.29) rotate(-56)"/><rect x="22.24" y="13.59" width="2.3" height="0.8" transform="translate(-1.28 25.56) rotate(-56)"/><rect x="23.28" y="14.28" width="2.3" height="0.8" transform="translate(-1.41 26.72) rotate(-56)"/><rect x="21.79" y="16.56" width="2.2" height="0.8" transform="translate(-3.98 26.45) rotate(-56)"/></svg>